<?xml version="1.0" encoding="utf-8"?><svg viewBox="0 0 512 512" xmlns="http://www.w3.org/2000/svg" xmlns:xlink="http://www.w3.org/1999/xlink"><style>:root>svg{display:none}:root>svg:target{display:block}</style><svg viewBox="0 0 284.935 284.936" id="angle-right" xmlns="http://www.w3.org/2000/svg"><path d="M222.701 135.9L89.652 2.857C87.748.955 85.557 0 83.084 0c-2.474 0-4.664.955-6.567 2.857L62.244 17.133c-1.906 1.903-2.855 4.089-2.855 6.567 0 2.478.949 4.664 2.855 6.567l112.204 112.204L62.244 254.677c-1.906 1.903-2.855 4.093-2.855 6.564 0 2.477.949 4.667 2.855 6.57l14.274 14.271c1.903 1.905 4.093 2.854 6.567 2.854 2.473 0 4.663-.951 6.567-2.854l133.042-133.044c1.902-1.902 2.854-4.093 2.854-6.567s-.945-4.664-2.847-6.571z"/></svg><svg viewBox="0 0 24 24" id="choice-close" xmlns="http://www.w3.org/2000/svg"><path d="M4.707 3.293L3.293 4.707 10.586 12l-7.293 7.293 1.414 1.414L12 13.414l7.293 7.293 1.414-1.414L13.414 12l7.293-7.293-1.414-1.414L12 10.586 4.707 3.293z"/></svg><svg viewBox="0 0 12 21" id="down-arrow" xmlns="http://www.w3.org/2000/svg"><path d="M.09 14.632a.995.995 0 01.922-.618h3.986V1.011a.998.998 0 011.993 0v13.003h3.987a1.002 1.002 0 01.705 1.708l-4.984 5.003a.994.994 0 01-1.409 0L.307 15.722a1.002 1.002 0 01-.216-1.09zm3.327 1.383l2.578 2.588 2.577-2.588z"/></svg><svg viewBox="0 0 502.664 502.664" id="icon" xmlns="http://www.w3.org/2000/svg"><path d="M153.821 358.226L0 274.337v-46.463l153.821-83.414v54.574L46.636 250.523l107.185 53.431v54.272zm26.273 29.358L282.103 115.08h32.227L212.084 387.584h-31.99zm168.749-29.358v-54.272l107.164-52.999-107.164-52.59v-53.927l153.821 83.522v46.183l-153.821 84.083z"/></svg><svg viewBox="0 0 512 512" id="next-arrow" xmlns="http://www.w3.org/2000/svg"><path d="M506.134 241.843l-.018-.019-104.504-104c-7.829-7.791-20.492-7.762-28.285.068-7.792 7.829-7.762 20.492.067 28.284L443.558 236H20c-11.046 0-20 8.954-20 20s8.954 20 20 20h423.557l-70.162 69.824c-7.829 7.792-7.859 20.455-.067 28.284 7.793 7.831 20.457 7.858 28.285.068l104.504-104 .018-.019c7.833-7.818 7.808-20.522-.001-28.314z"/></svg><svg viewBox="0 0 512 512" id="prev-arrow" xmlns="http://www.w3.org/2000/svg"><path d="M492 236H68.442l70.164-69.824c7.829-7.792 7.859-20.455.067-28.284-7.792-7.83-20.456-7.859-28.285-.068l-104.504 104-.018.019c-7.809 7.792-7.834 20.496-.002 28.314l.018.019 104.504 104c7.828 7.79 20.492 7.763 28.285-.068 7.792-7.829 7.762-20.492-.067-28.284L68.442 276H492c11.046 0 20-8.954 20-20s-8.954-20-20-20z"/></svg></svg>